{"title":"Six.Nations.Rugby.Union-Ireland.v.England-2013.02.10.720p.x264 ","uid":8128583,"size":2630047935,"categoryP":"video","categoryS":"hd___tv_shows","magnet":"?xt=urn:btih:34504693e16dd94287dcb9457d5c3067fa117309&amp;dn=Six.Nations.Rugby.Union-Ireland.v.England-2013.02.10.720p.x264+&amp;tr=udp%3A%2F%2Ftracker.openbittorrent.com%3A80&amp;tr=udp%3A%2F%2Fopen.demonii.com%3A1337&amp;tr=udp%3A%2F%2Ftracker.coppersurfer.tk%3A6969&amp;tr=udp%3A%2F%2Fexodus.desync.com%3A6969","seeders":1,"leechers":0,"uploader":"rugbybill","files":2,"time":1360539093,"description":"SPORT: Six Nations Rugby Union - Ireland v England\nOn: BBC 1 HD   \nDate: Sunday 10th February 2013 \nKO Time: 15:00\n\nLive coverage from Dublin, where Ireland are taking on England. It is ten years since England have won a Six Nations match in Dublin - that was the resounding 42-6 victory which clinched the Grand Slam in a year in which they went on to win the World Cup. Another win today would be a boost to head coach Stuart Lancaster's belief that his side are going in the right direction. But Ireland are determined to avenge last year's 30-9 defeat at Twickenham, when their forwards were steam-rollered by England's dominant pack. Match commentary comes from Eddie Butler and Brian Moore.\n\n\nGeneral\nComplete name                            : 2013.02.10.6N.Ireland.v.England.720p.x264.mp4\nFormat                                   : MPEG-4\nFormat profile                           : Base Media\nCodec ID                                 : isom\nFile size                                : 2.45 GiB\nDuration                                 : 1h 49mn\nOverall bit rate mode                    : Variable\nOverall bit rate                         : 3 195 Kbps\n\nVideo\nID                                       : 1\nFormat                                   : AVC\nFormat/Info                              : Advanced Video Codec\nFormat profile                           : &lt;a class=&quot;__cf_email__&quot; href=&quot;/cdn-cgi/l/email-protection&quot; data-cfemail=&quot;dd95b4bab59d91e9f3ec&quot;&gt;[email&amp;#160;protected]&lt;/a&gt;&lt;script cf-hash='f9e31' type=&quot;text/javascript&quot;&gt;\n/* &lt;![CDATA[ */!function(){try{var t=&quot;currentScript&quot;in document?document.currentScript:function(){for(var t=document.getElementsByTagName(&quot;script&quot;),e=t.length;e--;)if(t[e].getAttribute(&quot;cf-hash&quot;))return t[e]}();if(t&amp;&amp;t.previousSibling){var e,r,n,i,c=t.previousSibling,a=c.getAttribute(&quot;data-cfemail&quot;);if(a){for(e=&quot;&quot;,r=parseInt(a.substr(0,2),16),n=2;a.length-n;n+=2)i=parseInt(a.substr(n,2),16)^r,e+=String.fromCharCode(i);e=document.createTextNode(e),c.parentNode.replaceChild(e,c)}}}catch(u){}}();/* ]]&gt; */&lt;/script&gt;\nFormat settings, CABAC                   : Yes\nFormat settings, ReFrames                : 5 frames\nCodec ID                                 : avc1\nCodec ID/Info                            : Advanced Video Coding\nDuration                                 : 1h 49mn\nBit rate                                 : 3 067 Kbps\nMaximum bit rate                         : 7 759 Kbps\nWidth                                    : 1 280 pixels\nHeight                                   : 720 pixels\nDisplay aspect ratio                     : 16:9\nFrame rate mode                          : Constant\nFrame rate                               : 25.000 fps\nColor space                              : YUV\nChroma subsampling                       : 4:2:0\nBit depth                                : 8 bits\nScan type                                : Progressive\nBits/(Pixel*Frame)                       : 0.133\nStream size                              : 2.35 GiB (96%)\nWriting library                          : x264 core 129 r2245 bc13772\n\nAudio\nID                                       : 2\nFormat                                   : AAC\nFormat/Info                              : Advanced Audio Codec\nFormat profile                           : LC\nCodec ID                                 : 40\nDuration                                 : 1h 49mn\nBit rate mode                            : Variable\nBit rate                                 : 124 Kbps\nMaximum bit rate                         : 127 Kbps\nChannel(s)                               : 2 channels\nChannel positions                        : Front: L R\nSampling rate                            : 48.0 KHz\nCompression mode                         : Lossy\nDelay relative to video                  : 80ms\nStream size                              : 97.3 MiB (4%)\nLanguage                                 : English","torrent":{"xt":"urn:btih:34504693e16dd94287dcb9457d5c3067fa117309","amp;dn":"Six.Nations.Rugby.Union-Ireland.v.England-2013.02.10.720p.x264+","amp;tr":["udp%3A%2F%2Ftracker.openbittorrent.com%3A80","udp%3A%2F%2Fopen.demonii.com%3A1337","udp%3A%2F%2Ftracker.coppersurfer.tk%3A6969","udp%3A%2F%2Fexodus.desync.com%3A6969"],"infoHash":"34504693e16dd94287dcb9457d5c3067fa117309","infoHashBuffer":{"type":"Buffer","data":[52,80,70,147,225,109,217,66,135,220,185,69,125,92,48,103,250,17,115,9]},"announce":[],"urlList":[]}}